<?xml version="1.0" standalone="no"?>
<!DOCTYPE svg PUBLIC "-//W3C//DTD SVG 20010904//EN"
 "http://www.w3.org/TR/2001/REC-SVG-20010904/DTD/svg10.dtd">
<svg version="1.0" xmlns="http://www.w3.org/2000/svg"
 width="332.000000pt" height="332.000000pt" viewBox="0 0 332.000000 332.000000"
 preserveAspectRatio="xMidYMid meet">
<metadata>
Created by potrace 1.11, written by Peter Selinger 2001-2013
</metadata>
<g transform="translate(0.000000,332.000000) scale(0.100000,-0.100000)"
fill="#000000" stroke="none">
<path d="M2440 3239 c-107 -33 -205 -62 -218 -65 -13 -2 -42 -11 -65 -18 -23
-8 -114 -35 -202 -61 -88 -25 -178 -52 -200 -60 -36 -12 -157 -47 -162 -47 -1
0 -24 -7 -50 -15 -64 -20 -214 -64 -233 -69 -8 -2 -76 -22 -150 -44 -139 -42
-336 -101 -425 -127 -70 -20 -68 -19 -85 -26 -17 -6 -127 -38 -150 -42 -8 -2
-16 -4 -17 -5 -2 -2 -7 -4 -13 -5 -5 -1 -12 -4 -15 -5 -3 -1 -8 -3 -12 -4 -47
-9 -310 -92 -315 -100 -4 -6 -3 -15 1 -21 5 -5 11 -21 14 -35 8 -36 12 -50 57
-200 23 -74 43 -146 46 -160 3 -13 10 -30 16 -37 6 -7 8 -13 5 -13 -3 0 -2
-12 3 -27 20 -65 62 -209 64 -218 6 -22 39 -133 53 -175 8 -25 16 -49 17 -55
7 -29 28 -102 33 -115 3 -8 8 -24 10 -35 2 -11 12 -47 23 -80 20 -59 72 -231
76 -250 2 -10 26 -92 86 -290 16 -55 32 -111 35 -125 2 -14 8 -34 13 -45 8
-18 38 -118 45 -149 1 -6 5 -18 8 -26 10 -25 75 -254 79 -275 2 -11 9 -26 16
-33 7 -8 10 -17 7 -21 -2 -5 6 -40 18 -78 l22 -70 115 34 c142 43 210 63 230
68 8 2 15 4 15 5 0 1 7 3 15 5 16 3 152 43 233 68 26 8 47 13 47 10 0 -3 6 -1
13 4 6 6 26 13 42 17 17 4 66 18 110 32 44 15 89 28 99 30 10 2 35 9 55 16 20
6 41 12 46 13 30 4 105 30 105 38 0 4 4 6 9 3 5 -3 46 6 92 20 46 14 91 27 99
29 8 2 16 4 18 5 1 2 5 3 10 4 4 2 27 8 52 16 25 7 50 14 55 16 6 1 51 14 100
29 143 43 218 65 247 71 20 5 34 20 54 57 40 78 48 92 57 98 5 3 8 8 6 10 -3
6 40 89 63 122 11 15 16 27 12 27 -4 0 -1 8 7 18 8 9 28 42 44 72 16 30 36 69
45 85 9 17 38 71 65 120 26 50 51 95 55 100 4 6 31 54 59 108 44 82 51 103 46
130 -4 18 -10 37 -13 42 -4 6 -7 15 -8 20 -2 14 -44 157 -51 175 -3 8 -8 24
-10 35 -6 28 -9 38 -16 55 -6 14 -40 128 -42 140 0 3 -11 39 -24 80 -13 41
-24 80 -25 85 -1 6 -10 37 -20 70 -10 33 -19 65 -20 70 -1 6 -14 48 -29 95
-24 79 -59 195 -63 213 -1 4 -2 8 -4 10 -1 1 -3 9 -5 17 -16 66 -66 224 -74
234 -6 7 -8 16 -5 19 4 4 2 19 -4 34 -5 15 -20 62 -32 103 -12 41 -25 86 -30
100 -4 14 -13 45 -20 70 -7 25 -16 54 -21 65 -4 11 -9 31 -11 45 -2 14 -10 26
-18 27 -8 1 -103 -25 -210 -58z"/>
</g>
</svg>
